<svg width="252" height="72" viewBox="0 0 252 72" fill="none" xmlns="http://www.w3.org/2000/svg">
<path d="M130.771 0.359625C131.036 0.235082 131.553 0.125768 132.321 0.0323374C133.089 -0.0610928 133.765 0.0479401 134.348 0.359344C134.401 0.608523 134.454 1.37157 134.507 2.64848C134.56 3.92539 134.626 5.4981 134.705 7.36671C134.785 9.23531 134.864 11.2597 134.944 13.4397C135.023 15.6196 135.116 17.7218 135.222 19.7462C135.328 21.7706 135.421 23.5769 135.5 25.1652C135.58 26.7535 135.672 27.8903 135.778 28.5754C137.103 28.264 138.189 28.0148 139.036 27.8279C139.884 27.6411 140.599 27.5009 141.182 27.4075C141.765 27.3141 142.295 27.2362 142.772 27.1739C143.248 27.1116 143.831 26.9871 144.52 26.8002C145.421 26.7379 146.122 26.7068 146.626 26.7068C147.129 26.7068 147.5 26.7846 147.738 26.9403C147.977 27.0961 148.109 27.2986 148.136 27.5477C148.162 27.7969 148.176 28.1083 148.176 28.482C147.381 28.6689 146.467 28.9336 145.434 29.2762C144.401 29.6188 143.341 29.9769 142.255 30.3506C141.169 30.7244 140.083 31.1137 138.997 31.5185C137.911 31.9234 136.891 32.2504 135.937 32.4995C135.99 32.9978 136.07 34.0566 136.176 35.6762C136.281 37.2957 136.414 39.1952 136.573 41.3754C136.732 43.5556 136.904 45.8911 137.089 48.3827C137.275 50.8742 137.474 53.2878 137.685 55.6235C137.897 57.9593 138.109 60.0925 138.321 62.0235C138.533 63.9545 138.745 65.387 138.957 66.3213C139.169 67.0064 139.288 67.6293 139.315 68.1899C139.341 68.7505 139.487 69.6225 139.752 70.8059C139.222 71.0551 138.626 71.2576 137.964 71.4133C137.301 71.5691 136.732 71.5224 136.255 71.2732C135.99 70.5257 135.792 69.8406 135.659 69.2177C135.527 68.5948 135.407 67.9097 135.301 67.1623C135.196 66.4148 135.103 65.5739 135.023 64.6396C134.944 63.7053 134.825 62.5219 134.666 61.0893C134.613 60.4042 134.546 59.3297 134.467 57.8659C134.388 56.4022 134.282 54.736 134.149 52.8674C134.017 50.9988 133.884 49.0368 133.752 46.9813C133.619 44.9259 133.5 42.9795 133.394 41.1419C133.288 39.3044 133.209 37.685 133.156 36.2836C133.103 34.8821 133.076 33.9011 133.076 33.3405L130.573 33.9945L128.348 34.5551L125.765 35.2091L122.268 36.1434C122.268 37.4514 122.295 38.8372 122.348 40.3011C122.401 41.7649 122.48 43.6491 122.586 45.9536C122.639 47.4485 122.705 49.7532 122.785 52.8674C122.864 55.9817 122.957 59.5944 123.063 63.7053C122.533 64.0167 121.95 64.3126 121.315 64.5929C120.679 64.8732 120.149 65.0134 119.725 65.0134C119.672 64.6396 119.646 63.4094 119.646 61.3229V53.9886L119.606 45.1594L119.407 36.8909C117.235 37.7006 115.394 38.2923 113.884 38.666C112.374 39.0397 111.46 39.0086 111.143 38.5726C111.037 38.5726 111.063 38.2767 111.222 37.685C111.381 37.0933 111.593 36.5483 111.858 36.0501C112.705 35.8632 113.434 35.692 114.043 35.5362C114.652 35.3805 115.209 35.2247 115.712 35.069C116.215 34.9132 116.719 34.7264 117.222 34.5084C117.725 34.2904 118.348 33.9945 119.089 33.6208C118.93 30.3818 118.785 27.4855 118.652 24.9318C118.52 22.3781 118.361 20.0113 118.175 17.8311C117.99 15.6509 117.765 13.5179 117.5 11.4311C117.235 9.34434 116.891 7.0866 116.467 4.65742C116.732 4.15915 117.275 3.64528 118.096 3.11582C118.917 2.58635 119.831 2.53963 120.838 2.97567C120.785 5.71621 120.811 8.22318 120.917 10.4968C121.023 12.7704 121.156 15.0592 121.315 17.3639C121.473 19.6686 121.632 22.0667 121.791 24.5581C121.95 27.0494 122.056 29.8215 122.109 32.8734C123.328 32.6865 124.785 32.2817 126.48 31.6588C128.176 31.0359 130.189 30.4442 132.52 29.8836C132.52 28.3264 132.493 26.2398 132.44 23.6238C132.387 21.0077 132.281 18.3293 132.122 15.5888C131.963 12.8482 131.791 10.2789 131.606 7.88076C131.42 5.48264 131.222 3.69181 131.01 2.50852C130.957 2.07248 130.904 1.77659 130.851 1.62084C130.798 1.46509 130.758 1.35606 130.732 1.29374C130.705 1.23142 130.692 1.13799 130.692 1.01345C130.692 0.888906 130.718 0.671028 130.771 0.359625ZM161.923 38.8529C161.87 39.2266 161.751 40.005 161.566 41.1885C161.381 42.3719 161.182 43.7578 160.97 45.3461C160.758 46.9344 160.573 48.6005 160.414 50.3446C160.255 52.0887 160.162 53.7394 160.135 55.2964C160.109 56.8534 160.189 58.1773 160.374 59.2672C160.559 60.3571 160.864 61.0269 161.288 61.2761C162.506 61.9612 163.751 61.7276 165.023 60.5753C166.294 59.4231 167.778 57.6636 169.473 55.2965C169.632 55.2965 169.645 55.5457 169.513 56.044C169.38 56.5422 169.168 57.0872 168.877 57.6789L168.003 59.4541L167.327 60.622C166.904 61.2449 166.294 61.9456 165.5 62.7241C164.705 63.5027 163.857 64.1256 162.957 64.5927C162.056 65.0599 161.195 65.2624 160.374 65.2C159.553 65.1377 158.877 64.5771 158.347 63.5183C158.082 62.7708 157.923 61.8521 157.87 60.7621C157.817 59.672 157.817 58.5665 157.87 57.4453C157.923 56.3242 158.003 55.2964 158.109 54.3621C158.215 53.4278 158.294 52.7427 158.347 52.3067C157.235 54.7358 155.963 57.0405 154.533 59.2205C153.102 61.4005 151.698 63.1133 150.321 64.3592C148.943 65.6051 147.672 66.2745 146.506 66.3679C145.341 66.4613 144.44 65.6672 143.804 63.9854C143.433 62.366 143.433 60.5442 143.804 58.5198C144.175 56.4954 144.731 54.6735 145.473 53.0541C146.586 50.8118 147.751 48.7563 148.97 46.8877C150.188 45.0191 151.486 43.4308 152.864 42.1228C154.241 40.8147 155.685 39.8648 157.195 39.2731C158.705 38.6814 160.281 38.5415 161.923 38.8529ZM146.983 62.5839C147.513 62.7085 148.361 62.2412 149.526 61.1824C150.692 60.1235 151.91 58.6444 153.182 56.7445C154.453 54.8446 155.606 52.6335 156.639 50.1109C157.672 47.5883 158.347 44.9255 158.665 42.1226H157.751L156.361 42.6832C154.348 44.2404 152.626 46.0623 151.195 48.1489C149.765 50.2354 148.652 52.2598 147.857 54.2218C147.063 56.1839 146.586 57.9434 146.427 59.5006C146.268 61.0579 146.453 62.0857 146.983 62.5839ZM176.864 36.8909C178.188 37.14 179.288 37.4825 180.162 37.9186C181.036 38.3546 181.725 38.8374 182.228 39.3668C182.732 39.8963 183.129 40.4413 183.42 41.0019C183.712 41.5625 183.99 42.0919 184.255 42.5902C184.202 42.8394 183.95 42.8083 183.5 42.4969C183.049 42.1854 182.612 41.874 182.189 41.5626C181.023 40.6907 179.619 40.1612 177.977 39.9743C176.334 39.7875 174.811 39.8965 173.407 40.3013C172.003 40.7062 170.877 41.4069 170.03 42.4035C169.182 43.4001 168.97 44.6147 169.394 46.0473C169.818 47.4799 170.573 48.7255 171.659 49.7845C172.745 50.8435 173.95 51.7933 175.275 52.6341C176.599 53.475 177.924 54.238 179.248 54.9232C180.572 55.6083 181.659 56.2934 182.506 56.9785C183.566 56.2934 184.467 55.7172 185.208 55.2501C185.95 54.7829 186.612 54.3469 187.195 53.9421C187.778 53.5372 188.374 53.1635 188.983 52.8209C189.592 52.4783 190.294 52.089 191.089 51.6529C191.195 51.5906 191.288 51.5595 191.367 51.5595C191.447 51.5595 191.447 51.6373 191.367 51.7931C191.288 51.9488 191.076 52.198 190.731 52.5406C190.387 52.8832 189.844 53.366 189.102 53.9889C188.731 54.3003 188.043 54.8297 187.036 55.5772C186.03 56.3246 184.943 57.1344 183.778 58.0064C184.414 58.6915 184.917 59.4078 185.288 60.1553C185.606 60.8404 185.831 61.5722 185.963 62.3508C186.096 63.1293 185.977 63.9235 185.606 64.7333C184.546 66.7264 183.354 68.2836 182.03 69.4048C180.705 70.5259 179.487 71.3045 178.374 71.7405C177.632 72.0519 176.811 72.083 175.91 71.8339C175.01 71.5847 174.294 71.0864 173.765 70.339C173.182 69.3424 173.036 68.3302 173.328 67.3025C173.619 66.2748 174.109 65.2781 174.798 64.3127C175.487 63.3473 176.281 62.4286 177.182 61.5565C178.083 60.6845 178.877 59.906 179.566 59.2209C179.089 58.598 178.162 57.8349 176.785 56.9317C175.407 56.0285 173.99 55.0319 172.533 53.942C171.076 52.852 169.765 51.684 168.599 50.4383C167.434 49.1926 166.798 47.947 166.692 46.7011C166.48 45.3308 166.626 44.0071 167.129 42.7303C167.632 41.4536 168.374 40.3322 169.354 39.3668C170.334 38.4015 171.473 37.6851 172.771 37.2179C174.07 36.7508 175.433 36.6417 176.864 36.8909ZM176.149 68.9374C176.731 69.2488 177.394 69.2487 178.135 68.9373C178.877 68.6259 179.579 68.1744 180.241 67.5827C180.904 66.991 181.486 66.337 181.989 65.6207C182.493 64.9043 182.824 64.2659 182.983 63.7053C183.142 63.2071 182.996 62.6621 182.546 62.0704C182.095 61.4787 181.632 60.996 181.155 60.6222C180.572 61.1205 179.91 61.7589 179.168 62.5375C178.427 63.316 177.778 64.1102 177.221 64.9199C176.665 65.7297 176.254 66.5082 175.99 67.2557C175.725 68.0031 175.778 68.5637 176.149 68.9374ZM198.003 36.8909C199.327 37.14 200.427 37.4825 201.301 37.9186C202.175 38.3546 202.864 38.8374 203.367 39.3668C203.871 39.8963 204.268 40.4413 204.559 41.0019C204.851 41.5625 205.129 42.0919 205.394 42.5902C205.341 42.8394 205.089 42.8083 204.639 42.4969C204.188 42.1854 203.751 41.874 203.328 41.5626C202.162 40.6907 200.758 40.1612 199.116 39.9743C197.473 39.7875 195.95 39.8965 194.546 40.3013C193.142 40.7062 192.016 41.4069 191.169 42.4035C190.321 43.4001 190.109 44.6147 190.533 46.0473C190.957 47.4799 191.712 48.7255 192.798 49.7845C193.884 50.8435 195.089 51.7933 196.414 52.6341C197.738 53.475 199.063 54.238 200.387 54.9232C201.711 55.6083 202.798 56.2934 203.645 56.9785C204.705 56.2934 205.606 55.7172 206.347 55.2501C207.089 54.7829 207.751 54.3469 208.334 53.9421C208.917 53.5372 209.513 53.1635 210.122 52.8209C210.731 52.4783 211.433 52.089 212.228 51.6529C212.334 51.5906 212.427 51.5595 212.506 51.5595C212.586 51.5595 212.586 51.6373 212.506 51.7931C212.427 51.9488 212.215 52.198 211.87 52.5406C211.526 52.8832 210.983 53.366 210.241 53.9889C209.87 54.3003 209.182 54.8297 208.175 55.5772C207.169 56.3246 206.082 57.1344 204.917 58.0064C205.553 58.6915 206.056 59.4078 206.427 60.1553C206.745 60.8404 206.97 61.5722 207.102 62.3508C207.235 63.1293 207.116 63.9235 206.745 64.7333C205.685 66.7264 204.493 68.2836 203.169 69.4048C201.844 70.5259 200.626 71.3045 199.513 71.7405C198.771 72.0519 197.95 72.083 197.049 71.8339C196.149 71.5847 195.433 71.0864 194.904 70.339C194.321 69.3424 194.175 68.3302 194.467 67.3025C194.758 66.2748 195.248 65.2781 195.937 64.3127C196.626 63.3473 197.42 62.4286 198.321 61.5565C199.222 60.6845 200.016 59.906 200.705 59.2209C200.228 58.598 199.301 57.8349 197.924 56.9317C196.546 56.0285 195.129 55.0319 193.672 53.942C192.215 52.852 190.904 51.684 189.738 50.4383C188.573 49.1926 187.937 47.947 187.831 46.7011C187.619 45.3308 187.765 44.0071 188.268 42.7303C188.771 41.4536 189.513 40.3322 190.493 39.3668C191.473 38.4015 192.612 37.6851 193.91 37.2179C195.209 36.7508 196.572 36.6417 198.003 36.8909ZM197.288 68.9374C197.87 69.2488 198.533 69.2487 199.274 68.9373C200.016 68.6259 200.718 68.1744 201.38 67.5827C202.043 66.991 202.625 66.337 203.128 65.6207C203.632 64.9043 203.963 64.2659 204.122 63.7053C204.281 63.2071 204.135 62.6621 203.685 62.0704C203.234 61.4787 202.771 60.996 202.294 60.6222C201.711 61.1205 201.049 61.7589 200.307 62.5375C199.566 63.316 198.917 64.1102 198.36 64.9199C197.804 65.7297 197.393 66.5082 197.129 67.2557C196.864 68.0031 196.917 68.5637 197.288 68.9374ZM217.552 39.8806C217.711 39.8183 218.162 39.6467 218.903 39.3664C219.645 39.0861 220.254 39.0394 220.731 39.2262C222.268 39.1639 223.446 39.6311 224.268 40.6277C225.089 41.6243 225.155 43.5553 224.466 46.4204C223.46 49.597 222.122 52.2441 220.453 54.3619C218.784 56.4798 216.811 58.5042 214.532 60.4349C215.062 62.0543 215.857 62.9575 216.917 63.1444C217.976 63.3312 219.089 63.1288 220.254 62.5371C221.42 61.9454 222.559 61.1512 223.671 60.1546C224.784 59.158 225.685 58.286 226.373 57.5386C227.486 56.4174 228.374 55.4675 229.036 54.6889C229.698 53.9104 230.4 52.9605 231.142 51.8393C231.301 51.7148 231.393 51.7304 231.42 51.8861C231.446 52.0419 231.433 52.2755 231.38 52.5869C231.327 52.8983 231.248 53.3343 231.142 53.8949C230.983 54.3309 230.824 54.7202 230.665 55.0629C230.506 55.4055 230.281 55.7792 229.989 56.184C229.698 56.5888 229.314 57.0716 228.837 57.6322C228.36 58.1928 227.777 58.9402 227.089 59.8745C226.294 60.7465 225.526 61.603 224.784 62.4438C224.042 63.2847 223.261 64.0165 222.44 64.6394C221.618 65.2623 220.718 65.6984 219.738 65.9476C218.757 66.1967 217.632 66.1967 216.36 65.9476C215.301 65.5115 214.453 65.0444 213.817 64.5461C213.181 64.0478 212.691 63.534 212.347 63.0045C212.003 62.475 211.751 61.9923 211.592 61.5563C211.433 61.1202 211.327 60.7465 211.274 60.4351C211.009 59.1894 210.903 57.5077 210.956 55.3899C211.009 53.272 211.539 50.5315 212.546 47.168C213.235 45.4239 213.976 43.9446 214.771 42.7301C215.566 41.5155 216.493 40.5657 217.552 39.8806ZM214.056 56.4178C214.744 55.9817 215.552 55.3743 216.479 54.5958C217.406 53.8172 218.28 52.9141 219.102 51.8863C219.923 50.8586 220.638 49.7218 221.247 48.4761C221.857 47.2304 222.188 45.9224 222.241 44.552C222.4 43.6177 222.373 42.9637 222.161 42.59C222.055 42.4031 221.949 42.3097 221.844 42.3097C220.943 41.8114 220.042 41.9672 219.142 42.777C218.241 43.5867 217.42 44.739 216.678 46.2339C215.936 47.7288 215.314 49.3949 214.81 51.2324C214.307 53.0699 214.056 54.7984 214.056 56.4178ZM234.003 37.8252C234.003 39.5692 233.989 41.3129 233.963 43.057C233.936 44.8011 233.91 46.4829 233.883 48.1023C233.857 49.7216 233.83 51.2476 233.804 52.6803C233.777 54.1131 233.738 55.3898 233.685 56.511C233.685 56.2618 233.804 55.6545 234.042 54.6891C234.281 53.7237 234.612 52.6181 235.036 51.3723C235.459 50.1265 235.923 48.803 236.426 47.4015C236.929 46.0001 237.472 44.7544 238.055 43.6643C238.638 42.5742 239.234 41.7178 239.843 41.095C240.453 40.4722 241.022 40.2852 241.552 40.5344C242.718 41.1573 243.539 42.0605 244.016 43.2439C244.492 44.4273 244.837 45.7821 245.049 47.3081C245.261 48.834 245.473 50.5314 245.684 52.4C245.896 54.2687 246.373 56.2307 247.115 58.2861C247.433 59.2204 247.896 59.9056 248.506 60.3416C249.115 60.7777 249.698 61.0891 250.254 61.2759C250.81 61.4628 251.261 61.5718 251.605 61.6029C251.949 61.634 252.069 61.7431 251.963 61.9299C250.638 63.1134 249.499 63.5182 248.545 63.1445C247.592 62.7708 246.784 61.9455 246.122 60.6686C245.459 59.3917 244.916 57.8657 244.493 56.0905C244.069 54.3154 243.685 52.6025 243.34 50.9519C242.996 49.3012 242.691 47.8997 242.426 46.7475C242.162 45.5953 241.87 45.0191 241.552 45.0191C241.075 45.0814 240.559 45.6108 240.003 46.6075C239.446 47.6041 238.877 48.8498 238.294 50.3447C237.711 51.8396 237.155 53.4746 236.625 55.2498C236.095 57.0249 235.605 58.691 235.155 60.2483C234.705 61.8055 234.347 63.1446 234.082 64.2658C233.817 65.3869 233.658 66.0721 233.605 66.3212C232.811 66.3212 232.32 66.3524 232.135 66.4147C231.95 66.477 231.645 66.1656 231.221 65.4805C231.486 59.9991 231.579 54.8135 231.499 49.9243C231.42 45.0351 231.301 40.7838 231.142 37.1711C231.142 36.6105 231.261 36.3302 231.499 36.3302C231.738 36.3302 232.003 36.4548 232.294 36.7039C232.585 36.9531 232.89 37.2023 233.208 37.4515C233.526 37.7007 233.791 37.8252 234.003 37.8252Z" fill="white"/>
<path d="M39.7074 70.1128C39.4206 71.1928 38.4839 71.7811 37.6135 71.4252C36.7447 71.0693 36.2706 69.9091 36.5574 68.827L54.4411 1.41447C54.7279 0.334467 55.6646 -0.251819 56.535 0.104067C57.4038 0.459952 57.8779 1.62224 57.5928 2.70224L39.7074 70.1128Z" fill="#D6C42A"/>
<path d="M64.6597 62.779C64.1325 62.779 63.6119 62.4684 63.2903 61.8842C62.773 60.9482 62.9653 59.6666 63.7213 59.0227L87.7393 38.5891L63.7213 18.1534C62.9653 17.5096 62.7747 16.23 63.2903 15.294C63.8092 14.358 64.8404 14.1173 65.5964 14.7612L91.6088 36.894C92.0597 37.2787 92.33 37.9123 92.33 38.5912C92.33 39.27 92.0614 39.9057 91.6088 40.2883L65.5964 62.4211C65.3096 62.6618 64.9813 62.779 64.6597 62.779Z" fill="#D6C42A"/>
<path d="M27.6703 58.6648C28.1975 58.6648 28.7181 58.3541 29.0397 57.7699C29.557 56.8339 29.3646 55.5523 28.6086 54.9084L4.59072 34.4748L28.6086 14.0392C29.3646 13.3953 29.5553 12.1157 29.0397 11.1797C28.5208 10.2437 27.4896 10.0031 26.7336 10.6469L0.721188 32.7797C0.27024 33.1644 1.21443e-06 33.798 1.21443e-06 34.4769C1.21443e-06 35.1557 0.268582 35.7914 0.721188 36.174L26.7336 58.3068C27.0204 58.5475 27.3486 58.6648 27.6703 58.6648Z" fill="#D6C42A"/>
</svg>
